# xmcd CD database file
#
# Track frame offsets:
#	150
#	20552
#	45162
#
# Disc length: 4440 seconds
#
# Revision: 0
# Processed by: cddbd v1.5PL3 Copyright (c) Steve Scherf et al.
# Submitted via: CDex 1.50
#
DISCID=17115603
DTITLE=笹川美和 - 笑
DYEAR=2003
DGENRE=JPop
TTITLE0=笑
TTITLE1=願いごと
TTITLE2=2nd session
EXTD=YEAR: 2003
EXTT0=
EXTT1=
EXTT2=
PLAYORDER=
